<?xml version="1.0" encoding="UTF-8" standalone="no"?>
<!-- Created with Inkscape (http://www.inkscape.org/) -->

<svg
   width="206.17302mm"
   height="55.25547mm"
   viewBox="0 0 206.17302 55.25547"
   version="1.1"
   id="svg1"
   inkscape:version="1.3.2 (091e20e, 2023-11-25)"
   sodipodi:docname="logo-text-white.svg"
   xmlns:inkscape="http://www.inkscape.org/namespaces/inkscape"
   xmlns:sodipodi="http://sodipodi.sourceforge.net/DTD/sodipodi-0.dtd"
   xmlns="http://www.w3.org/2000/svg"
   xmlns:svg="http://www.w3.org/2000/svg">
  <sodipodi:namedview
     id="namedview1"
     pagecolor="#ffffff"
     bordercolor="#666666"
     borderopacity="1.0"
     inkscape:showpageshadow="2"
     inkscape:pageopacity="0.0"
     inkscape:pagecheckerboard="true"
     inkscape:deskcolor="#d1d1d1"
     inkscape:document-units="mm"
     inkscape:zoom="1.0507202"
     inkscape:cx="349.28423"
     inkscape:cy="66.620971"
     inkscape:window-width="1920"
     inkscape:window-height="1016"
     inkscape:window-x="0"
     inkscape:window-y="27"
     inkscape:window-maximized="1"
     inkscape:current-layer="layer1" />
  <defs
     id="defs1" />
  <g
     inkscape:label="Ebene 1"
     inkscape:groupmode="layer"
     id="layer1"
     transform="translate(-3.4019349,-24.473558)">
    <g
       id="g14"
       transform="matrix(0.55321791,0,0,0.55321791,-21.384244,5.239144)">
      <path
         d="M 54.064045,123.40359 V 57.257762 l 39.6875,-13.22917 39.687505,13.22917 v 66.145828 z"
         style="fill:#008bf8;stroke:#008bf8;stroke-width:18.5208"
         stroke-linejoin="round"
         id="path1" />
      <path
         d="M 67.293211,110.17443 V 70.486932 l 26.458334,-7.9375 26.458335,7.9375 V 110.17443 H 75.230711 v 18.52083 h -7.9375 z"
         style="fill:#ffffff;stroke:#ffffff;stroke-width:11.9062"
         stroke-linejoin="round"
         id="path2-0" />
      <path
         d="m 80.522378,96.945262 v -13.22917 l 13.229167,-5.29166 13.229165,5.29166 v 13.22917 z"
         style="fill:#dc0073;stroke:#dc0073;stroke-width:5.29167"
         stroke-linejoin="round"
         id="path3-6" />
    </g>
    <path
       style="font-weight:600;font-size:52.8782px;line-height:1.25;font-family:Genos;-inkscape-font-specification:'Genos Semi-Bold';fill:#ffffff;stroke-width:1.32196"
       d="m 64.054259,60.046345 q 0,-5.234942 0,-10.417006 0,-5.182063 0,-10.364127 0,-1.956493 0.634538,-2.749666 0.687417,-0.793173 2.64391,-0.793173 2.485276,0 5.234942,0 2.802545,-0.05288 5.552211,0 2.802545,0 5.234942,0 2.326641,0.105756 4.071621,0.846051 1.744981,0.740295 2.696789,2.379519 1.004685,1.586346 1.004685,4.283134 0,3.014057 -1.004685,4.864794 -0.951808,1.850737 -2.749667,2.696789 -1.744981,0.793173 -4.177378,0.793173 -2.961179,-0.05288 -6.133871,-0.05288 -3.172692,0 -6.186749,0 0,-1.586346 0,-2.32664 0.05288,-0.793173 0.264391,-1.057564 0.211512,-0.264391 0.846051,-0.264391 1.004686,0 2.432397,0 1.427711,0 2.961179,0 1.586346,0 2.908301,0 1.057564,0 1.903615,-0.423026 0.846052,-0.423026 1.321955,-1.427711 0.475904,-1.004686 0.475904,-2.696789 0,-1.797858 -0.687416,-2.749666 -0.687417,-0.951808 -2.273763,-1.057564 -1.48059,-0.105756 -3.066936,-0.105756 -1.586346,0 -3.066935,0.05288 -1.48059,0 -2.64391,0 -0.317269,0 -0.740295,0.264391 -0.423026,0.264391 -0.423026,0.793173 0,4.864794 0,9.729589 0,4.864794 0,9.782467 z m 42.355411,0.317269 q -2.80254,0 -4.97055,-0.370147 -2.168004,-0.423026 -3.701472,-1.533468 -1.480589,-1.163321 -2.273762,-3.331327 -0.793173,-2.168006 -0.793173,-5.605089 0,-3.437083 0.793173,-5.605089 0.793173,-2.168007 2.273762,-3.278449 1.533468,-1.16332 3.701472,-1.533468 2.16801,-0.423025 4.97055,-0.423025 2.85543,0 4.97055,0.423025 2.16801,0.370148 3.6486,1.533468 1.48059,1.110442 2.22088,3.278449 0.79318,2.168006 0.79318,5.605089 0,3.489961 -0.79318,5.657967 -0.74029,2.115128 -2.22088,3.278449 -1.48059,1.110442 -3.6486,1.533468 -2.168,0.370147 -4.97055,0.370147 z m 0,-3.22557 q 1.69211,0 2.80255,-0.58166 1.16332,-0.581661 1.74498,-2.220885 0.58166,-1.639224 0.58166,-4.811916 0,-3.172692 -0.58166,-4.811916 -0.58166,-1.639225 -1.74498,-2.220885 -1.11044,-0.58166 -2.80255,-0.58166 -1.63922,0 -2.80254,0.58166 -1.16332,0.58166 -1.79786,2.220885 -0.63454,1.639224 -0.63454,4.811916 0,3.172692 0.63454,4.811916 0.63454,1.639224 1.79786,2.220885 1.16332,0.58166 2.80254,0.58166 z m 15.49328,-7.667339 q 0,-4.336013 1.2162,-6.662654 1.2162,-2.32664 3.48996,-3.172692 2.32664,-0.898929 5.49933,-0.898929 0.95181,0 2.16801,0.105756 1.26908,0.105757 2.4324,0.31727 1.16332,0.158634 2.06225,0.423025 0.89893,0.211513 1.32195,0.475904 l -1.58634,0.687417 v -7.402949 h 6.34538 l -0.0529,16.074973 q 0,3.595718 -0.58166,5.763724 -0.58166,2.115128 -1.95649,3.225571 -1.32196,1.057564 -3.6486,1.427711 -2.27376,0.317269 -5.71084,0.317269 -3.11982,0 -5.28782,-0.423025 -2.11513,-0.423026 -3.38421,-1.533468 -1.2162,-1.110442 -1.79786,-3.22557 -0.52878,-2.115129 -0.52878,-5.499333 z m 11.1573,7.297191 q 1.74498,0 2.80255,-0.264391 1.11044,-0.317269 1.63922,-1.004685 0.58166,-0.687417 0.79317,-1.956494 0.21152,-1.321955 0.21152,-3.331327 l -0.0529,-7.561582 q -0.42303,-0.05288 -1.16332,-0.05288 -0.7403,-0.05288 -1.53347,-0.105757 -0.79317,-0.05288 -1.48059,-0.05288 -2.22088,0 -3.54284,0.58166 -1.26908,0.528782 -1.85074,2.06225 -0.52878,1.533468 -0.52878,4.494647 0,3.066936 0.42303,4.600403 0.4759,1.533468 1.53347,2.06225 1.05756,0.528782 2.74966,0.528782 z m 30.5107,3.648596 q -3.86011,0 -6.66266,-0.528782 -2.74966,-0.528782 -4.6004,-1.903615 -1.79786,-1.374833 -2.69679,-3.807231 -0.84605,-2.485275 -0.84605,-6.292505 0,-3.912987 0.89893,-6.345384 0.95181,-2.485276 2.80254,-3.807231 1.90362,-1.374833 4.70616,-1.903615 2.85543,-0.528782 6.66266,-0.528782 3.80723,0 6.55689,0.528782 2.80255,0.528782 4.60041,1.903615 1.85073,1.374833 2.69679,3.860109 0.89893,2.432397 0.89893,6.292506 0,3.860108 -0.95181,6.345384 -0.89893,2.432397 -2.74967,3.80723 -1.85074,1.374833 -4.70616,1.903615 -2.80254,0.475904 -6.60977,0.475904 z m 0.10575,-3.754352 q 1.90362,0 3.33133,-0.317269 1.48059,-0.370148 2.4324,-1.321955 0.9518,-0.951808 1.42771,-2.64391 0.4759,-1.744981 0.4759,-4.494647 0,-2.802545 -0.4759,-4.494647 -0.47591,-1.744981 -1.42771,-2.696789 -0.95181,-0.951807 -2.4324,-1.269076 -1.42771,-0.370148 -3.33133,-0.370148 -1.95649,0 -3.43708,0.370148 -1.42771,0.317269 -2.37952,1.269076 -0.89893,0.951808 -1.37483,2.696789 -0.47591,1.692102 -0.47591,4.494647 0,2.749666 0.47591,4.494647 0.4759,1.692102 1.37483,2.64391 0.95181,0.951807 2.37952,1.321955 1.48059,0.317269 3.43708,0.317269 z m 19.08901,-1.639224 q 1.26908,0.634538 3.22557,0.951807 1.9565,0.264391 4.07163,0.370148 2.11512,0.05288 3.75435,0.05288 0.58166,0 1.42771,0 0.89893,0 1.48059,-0.05288 1.6921,-0.05288 2.9083,-0.370148 1.2162,-0.370147 1.85074,-1.16332 0.63454,-0.793173 0.63454,-2.220885 0,-1.74498 -0.95181,-2.273762 -0.95181,-0.58166 -2.9083,-0.58166 -0.63454,0 -1.48059,0 -0.79318,0 -1.90362,0 -1.11044,0 -2.74966,0 -1.63923,0 -3.27845,-0.158635 -1.63923,-0.158635 -3.01406,-0.740295 -1.32196,-0.58166 -2.11513,-1.850737 -0.79317,-1.321955 -0.79317,-3.648596 0,-2.749666 0.95181,-4.283134 0.9518,-1.586346 2.69678,-2.326641 1.74498,-0.793173 4.1245,-1.004685 2.37952,-0.211513 5.18207,-0.211513 1.6921,0 3.70147,0.05288 2.00937,0.05288 3.75435,0.211513 1.79786,0.158634 2.74967,0.475904 1.48059,0.105756 2.27376,0.846051 0.79318,0.687416 0.79318,1.74498 0,0.158635 0,0.581661 0,0.423025 0,0.846051 0,0.423025 0,0.475904 -0.42303,-0.423026 -1.58635,-0.687417 -1.11044,-0.264391 -2.59103,-0.370147 -1.42771,-0.158635 -2.85542,-0.211513 -1.42772,-0.05288 -2.4324,-0.05288 h -4.17738 q -1.63922,0 -2.85542,0.264391 -1.16332,0.264391 -1.85074,1.004685 -0.63454,0.687417 -0.63454,2.115128 0,1.110443 0.42303,1.744981 0.4759,0.58166 1.32195,0.793173 0.89893,0.211513 2.22089,0.211513 2.80254,0 4.6004,0 1.85074,0 2.59103,0 2.48528,0 4.33601,0.423025 1.85074,0.423026 2.85543,1.850737 1.05756,1.427712 1.05756,4.441769 0,2.855423 -1.2162,4.547526 -1.16332,1.692102 -3.22557,2.432397 -2.06225,0.740295 -4.81191,0.898929 -2.06225,0.158635 -3.96587,0.158635 -1.90361,0 -4.01874,0 -1.79786,-0.05288 -3.54284,-0.158635 -1.6921,-0.105756 -3.06694,-0.423025 -1.32195,-0.31727 -2.168,-0.846052 -0.79318,-0.58166 -0.79318,-1.533467 z"
       id="text3"
       aria-label="PodOS" />
    <path
       d="M 66.44296,72.163887 V 69.775186 L 64.284188,66.607284 64.05426,66.287939 h 1.302927 l 1.788332,2.797462 1.81388,-2.797462 h 0.894166 l -0.281024,0.357666 -2.158772,3.129581 v 1.941618 q 0.01277,0.166059 -0.02555,0.26825 -0.03832,0.08942 -0.127738,0.140512 -0.08942,0.03832 -0.281024,0.03832 z m 5.928684,0.07664 q -0.587595,0 -1.060225,-0.08942 -0.459857,-0.08942 -0.80475,-0.357666 -0.332118,-0.26825 -0.510952,-0.791976 -0.178833,-0.523726 -0.178833,-1.37957 0,-0.855845 0.178833,-1.379571 0.178834,-0.523725 0.510952,-0.791975 0.344893,-0.26825 0.80475,-0.357667 0.47263,-0.08942 1.060225,-0.08942 0.574821,0 1.034678,0.08942 0.472631,0.08942 0.804749,0.357667 0.332119,0.26825 0.510952,0.791975 0.178834,0.523726 0.178834,1.379571 0,0.868618 -0.178834,1.392344 -0.178833,0.523726 -0.510952,0.791976 -0.332118,0.255476 -0.804749,0.344892 -0.459857,0.08942 -1.034678,0.08942 z m 0,-0.498178 q 0.510952,0 0.868619,-0.153286 0.37044,-0.153286 0.562047,-0.600369 0.191607,-0.447083 0.191607,-1.366796 0,-0.919714 -0.191607,-1.366797 -0.191607,-0.447083 -0.562047,-0.600368 -0.357667,-0.153286 -0.868619,-0.153286 -0.510952,0 -0.881392,0.153286 -0.357666,0.153285 -0.562047,0.600368 -0.191607,0.447083 -0.191607,1.366797 0,0.919713 0.191607,1.366796 0.204381,0.447083 0.562047,0.600369 0.37044,0.153286 0.881392,0.153286 z m 4.636866,-4.675211 v 3.4617 q 0,0.63869 0.357666,0.906939 0.370441,0.255476 1.124095,0.255476 0.804749,0 1.149642,-0.268249 0.357666,-0.281024 0.357666,-0.894166 v -3.4617 q 0.01277,0 0.07664,0 0.07664,0 0.153285,0 0.08942,0 0.16606,0 0.07664,0 0.10219,0 0.153286,0 0.242702,0.02555 0.08942,0.01277 0.114965,0.08942 0.03832,0.07664 0.03832,0.255476 v 2.9252 q 0,0.63869 -0.191607,1.060226 -0.191607,0.408761 -0.715333,0.613142 -0.523725,0.191607 -1.507308,0.191607 -0.894166,0 -1.417892,-0.166059 -0.510952,-0.16606 -0.728106,-0.562048 -0.217155,-0.395987 -0.217155,-1.072999 v -2.989069 q 0,-0.217155 0.06387,-0.293797 0.07664,-0.07664 0.281024,-0.07664 0.140511,0 0.268249,0 0.140512,0 0.281024,0 z m 6.195291,5.096746 h -0.562047 q -0.166059,0 -0.255476,-0.07664 -0.07664,-0.08942 -0.07664,-0.319345 v -4.445282 q 0.281024,-0.08942 0.766428,-0.191607 0.498178,-0.102191 1.226285,-0.102191 0.689785,0 1.085773,0.102191 0.408762,0.08942 0.587595,0.255476 0.191607,0.166059 0.242702,0.408761 0.06387,0.229929 0.06387,0.523726 h -0.855845 l -0.01277,-0.178833 q -0.01277,-0.293797 -0.191607,-0.421535 -0.178834,-0.140512 -0.421536,-0.16606 -0.242702,-0.03832 -0.485404,-0.03832 -0.37044,0 -0.664238,0.06387 -0.281023,0.06387 -0.447083,0.166059 z m 7.396015,1.366797 0.01277,-5.390544 q 0,-0.357666 -0.01277,-0.613142 0,-0.26825 -0.01277,-0.344893 0.08942,-0.02555 0.357666,-0.0511 0.26825,-0.02555 0.613143,-0.03832 0.344892,-0.02555 0.702559,-0.03832 0.37044,-0.02555 0.664237,-0.02555 1.034678,0 1.609499,0.281024 0.587595,0.26825 0.830297,0.855845 0.242702,0.587594 0.191607,1.520082 -0.02555,0.919713 -0.242702,1.481761 -0.217155,0.549273 -0.702559,0.804749 -0.485405,0.242702 -1.328475,0.242702 -0.510952,0 -0.932488,-0.10219 -0.408761,-0.102191 -0.664237,-0.344893 -0.255476,-0.255476 -0.332119,-0.728106 l 0.153285,-0.140512 v 2.631403 z m 2.503664,-1.852201 q 0.791976,0 1.17519,-0.472631 0.383214,-0.472631 0.383214,-1.596725 0.02555,-1.136868 -0.357666,-1.596725 -0.383214,-0.459857 -1.379571,-0.459857 -0.191607,0 -0.485404,0.01277 -0.281024,0.01277 -0.549274,0.03832 -0.255476,0.01277 -0.383214,0.03832 v 2.55476 q 0,0.600368 0.191607,0.919713 0.204381,0.319345 0.562048,0.447083 0.357666,0.114965 0.84307,0.114965 z m 6.208059,0.562047 q -0.74088,0 -1.251832,-0.102191 -0.498178,-0.10219 -0.804749,-0.383214 -0.293798,-0.281023 -0.43431,-0.779201 -0.127738,-0.510952 -0.127738,-1.315702 0,-0.919713 0.229929,-1.507308 0.229928,-0.587595 0.817523,-0.868619 0.587595,-0.281023 1.64782,-0.281023 0.817528,0 1.302928,0.217154 0.49818,0.217155 0.71533,0.664238 0.22993,0.447083 0.22993,1.162416 v 0.728106 h -3.602211 q 0,-0.153285 0.07664,-0.255476 0.07664,-0.114964 0.281024,-0.114964 h 2.439794 l -0.0128,-0.37044 q -0.0128,-0.791976 -0.34489,-1.149642 -0.31935,-0.357666 -1.124099,-0.357666 -0.677012,0 -1.060226,0.20438 -0.383214,0.204381 -0.536499,0.664238 -0.153286,0.459857 -0.153286,1.251832 0,0.843071 0.16606,1.290154 0.178833,0.434309 0.587594,0.600369 0.408762,0.153285 1.111321,0.153285 0.242702,0 0.549275,-0.01277 0.31934,-0.02555 0.63869,-0.0511 0.31934,-0.02555 0.56205,-0.06387 0.25547,-0.0511 0.35766,-0.10219 v 0.153286 q 0,0.127738 -0.0766,0.242702 -0.0639,0.114964 -0.28102,0.191607 -0.28103,0.114964 -0.76643,0.153285 -0.472633,0.03832 -1.136871,0.03832 z m 4.419711,-0.07664 h -0.56204 q -0.16606,0 -0.25548,-0.07664 -0.0766,-0.08942 -0.0766,-0.319345 v -4.445282 q 0.28102,-0.08942 0.76643,-0.191607 0.49817,-0.102191 1.22628,-0.102191 0.68979,0 1.08577,0.102191 0.40877,0.08942 0.5876,0.255476 0.19161,0.166059 0.2427,0.408761 0.0639,0.229929 0.0639,0.523726 h -0.85585 l -0.0128,-0.178833 q -0.0128,-0.293797 -0.19161,-0.421535 -0.17883,-0.140512 -0.42153,-0.16606 -0.2427,-0.03832 -0.48541,-0.03832 -0.37044,0 -0.66423,0.06387 -0.28103,0.06387 -0.44709,0.166059 z m 5.88871,0.0511 q -0.21715,0 -0.54927,-0.01277 -0.31935,-0.01277 -0.66424,-0.0511 -0.33212,-0.05109 -0.60037,-0.140512 -0.12774,-0.05109 -0.20438,-0.10219 -0.0766,-0.0511 -0.11496,-0.178833 -0.0255,-0.127738 -0.0255,-0.383214 0.28102,0.140512 0.66424,0.229928 0.38321,0.07664 0.76642,0.102191 0.38322,0.02555 0.63869,0.02555 0.38322,0 0.74088,-0.02555 0.37044,-0.03832 0.66424,-0.140512 0.2938,-0.114964 0.45986,-0.332119 0.17883,-0.217155 0.17883,-0.574821 0,-0.523726 -0.26825,-0.664238 -0.26825,-0.153285 -0.7281,-0.153285 h -1.29016 q -0.47263,0 -0.89416,-0.0511 -0.40877,-0.06387 -0.67702,-0.319345 -0.25547,-0.26825 -0.25547,-0.894166 0,-0.677012 0.33212,-1.009131 0.33212,-0.332118 0.93248,-0.434309 0.61315,-0.10219 1.4179,-0.10219 0.29379,0 0.70256,0.01277 0.40876,0.01277 0.7792,0.07664 0.25547,0.03832 0.42153,0.102191 0.17884,0.0511 0.25548,0.153285 0.0894,0.102191 0.0894,0.293798 v 0.255476 q -0.11497,-0.127738 -0.38322,-0.204381 -0.26825,-0.07664 -0.62591,-0.114964 -0.3449,-0.03832 -0.71534,-0.03832 -0.37044,-0.01277 -0.68978,-0.01277 -0.40876,0 -0.79198,0.05109 -0.38321,0.0511 -0.62591,0.255476 -0.22993,0.191607 -0.22993,0.664237 0,0.357667 0.15328,0.523726 0.15329,0.16606 0.40876,0.217155 0.26825,0.03832 0.60037,0.03832 h 1.3157 q 0.48541,0 0.85585,0.08942 0.38321,0.07664 0.58759,0.37044 0.21716,0.281024 0.21716,0.894166 0,0.677011 -0.37044,1.021904 -0.37044,0.344893 -1.02191,0.459857 -0.63869,0.10219 -1.45621,0.10219 z m 6.31024,0.02555 q -0.58759,0 -1.06022,-0.08942 -0.45986,-0.08942 -0.80475,-0.357666 -0.33212,-0.26825 -0.51095,-0.791976 -0.17884,-0.523726 -0.17884,-1.37957 0,-0.855845 0.17884,-1.379571 0.17883,-0.523725 0.51095,-0.791975 0.34489,-0.26825 0.80475,-0.357667 0.47263,-0.08942 1.06022,-0.08942 0.57482,0 1.03468,0.08942 0.47263,0.08942 0.80475,0.357667 0.33212,0.26825 0.51095,0.791975 0.17884,0.523726 0.17884,1.379571 0,0.868618 -0.17884,1.392344 -0.17883,0.523726 -0.51095,0.791976 -0.33212,0.255476 -0.80475,0.344892 -0.45986,0.08942 -1.03468,0.08942 z m 0,-0.498178 q 0.51096,0 0.86862,-0.153286 0.37044,-0.153286 0.56205,-0.600369 0.19161,-0.447083 0.19161,-1.366796 0,-0.919714 -0.19161,-1.366797 -0.19161,-0.447083 -0.56205,-0.600368 -0.35766,-0.153286 -0.86862,-0.153286 -0.51095,0 -0.88139,0.153286 -0.35766,0.153285 -0.56205,0.600368 -0.1916,0.447083 -0.1916,1.366797 0,0.919713 0.1916,1.366796 0.20439,0.447083 0.56205,0.600369 0.37044,0.153286 0.88139,0.153286 z m 4.15146,0.421535 q -0.29379,0 -0.29379,-0.306571 v -4.419735 q 0.37044,-0.166059 0.97081,-0.293797 0.61314,-0.127738 1.40511,-0.127738 0.74088,0 1.20074,0.10219 0.45986,0.10219 0.70256,0.306571 0.2427,0.204381 0.31934,0.5365 0.0894,0.319345 0.0894,0.779202 v 3.040164 q 0,0.140512 -0.0383,0.229928 -0.0255,0.08942 -0.11496,0.127738 -0.0767,0.02555 -0.24271,0.02555 h -0.49817 v -3.602212 q 0,-0.510952 -0.33212,-0.753654 -0.33212,-0.242702 -1.08578,-0.242702 -0.2427,0 -0.5365,0.03832 -0.28102,0.03832 -0.5365,0.114965 -0.25547,0.06387 -0.42153,0.178833 v 4.266449 z m 8.02194,0.08942 q -0.75366,0 -1.22629,-0.07664 -0.47263,-0.07664 -0.7281,-0.255476 -0.24271,-0.191607 -0.3449,-0.498178 -0.0894,-0.306572 -0.0894,-0.753655 0,-0.651463 0.15328,-0.996356 0.15329,-0.344893 0.5365,-0.472631 0.38322,-0.127738 1.02191,-0.127738 0.31934,0 0.68978,0.02555 0.38321,0.01277 0.72811,0.03832 0.35766,0.01277 0.61314,0.03832 0.26825,0.02555 0.35767,0.06387 0,-0.587595 -0.10219,-0.932488 -0.10219,-0.344892 -0.31935,-0.510952 -0.20438,-0.166059 -0.52373,-0.217154 -0.30657,-0.05109 -0.71533,-0.05109 -0.42153,0 -0.85584,0.03832 -0.42154,0.02555 -0.7792,0.10219 -0.35767,0.06387 -0.54928,0.178834 v -0.191607 q 0,-0.26825 0.15329,-0.370441 0.16606,-0.114964 0.37044,-0.153285 0.2427,-0.06387 0.70256,-0.102191 0.47263,-0.03832 0.98358,-0.02555 0.65146,0 1.11132,0.06387 0.47263,0.06387 0.7792,0.281023 0.30657,0.204381 0.45986,0.625917 0.15328,0.421535 0.15328,1.149642 v 2.631402 q -0.0766,0.255476 -0.67701,0.383214 -0.60037,0.114965 -1.90329,0.114965 z m 0,-0.43431 q 0.58759,0 0.93248,-0.03832 0.35767,-0.03832 0.5365,-0.10219 0.19161,-0.06387 0.24271,-0.16606 v -1.903296 q -0.11497,-0.03832 -0.43431,-0.07664 -0.30657,-0.03832 -0.65147,-0.06387 -0.34489,-0.03832 -0.58759,-0.03832 -0.54928,0 -0.89417,0.06387 -0.33212,0.06387 -0.4854,0.319345 -0.14051,0.255476 -0.14051,0.791975 0,0.421536 0.10219,0.689786 0.10219,0.268249 0.40876,0.395987 0.31934,0.127738 0.97081,0.127738 z m 5.0712,0.395988 q -0.5876,0 -0.84307,-0.255476 -0.25548,-0.26825 -0.25548,-0.945261 v -4.879592 q 0,-0.153285 0.0256,-0.242702 0.0255,-0.10219 0.10219,-0.140512 0.0894,-0.03832 0.2427,-0.03832 h 0.5365 q 0,0.01277 -0.0128,0.166059 -0.0128,0.153286 -0.0128,0.383214 v 4.611342 q 0,0.485405 0.10219,0.702559 0.11497,0.217155 0.43431,0.217155 0.0894,0 0.2427,-0.02555 0.15329,-0.02555 0.20438,-0.03832 v 0.395988 q -0.0766,0.01277 -0.25547,0.05109 -0.16606,0.03832 -0.51095,0.03832 z m 7.28105,0.02555 q -0.58759,0 -1.06022,-0.08942 -0.45986,-0.08942 -0.80475,-0.357666 -0.33212,-0.26825 -0.51095,-0.791976 -0.17884,-0.523726 -0.17884,-1.37957 0,-0.855845 0.17884,-1.379571 0.17883,-0.523725 0.51095,-0.791975 0.34489,-0.26825 0.80475,-0.357667 0.47263,-0.08942 1.06022,-0.08942 0.57482,0 1.03468,0.08942 0.47263,0.08942 0.80475,0.357667 0.33212,0.26825 0.51095,0.791975 0.17884,0.523726 0.17884,1.379571 0,0.868618 -0.17884,1.392344 -0.17883,0.523726 -0.51095,0.791976 -0.33212,0.255476 -0.80475,0.344892 -0.45986,0.08942 -1.03468,0.08942 z m 0,-0.498178 q 0.51096,0 0.86862,-0.153286 0.37044,-0.153286 0.56205,-0.600369 0.19161,-0.447083 0.19161,-1.366796 0,-0.919714 -0.19161,-1.366797 -0.19161,-0.447083 -0.56205,-0.600368 -0.35766,-0.153286 -0.86862,-0.153286 -0.51095,0 -0.88139,0.153286 -0.35766,0.153285 -0.56205,0.600368 -0.1916,0.447083 -0.1916,1.366797 0,0.919713 0.1916,1.366796 0.20439,0.447083 0.56205,0.600369 0.37044,0.153286 0.88139,0.153286 z m 4.15146,0.421535 q -0.2938,0 -0.2938,-0.306571 v -4.419735 q 0.37044,-0.166059 0.97081,-0.293797 0.61314,-0.127738 1.40512,-0.127738 0.74088,0 1.20074,0.10219 0.45985,0.10219 0.70256,0.306571 0.2427,0.204381 0.31934,0.5365 0.0894,0.319345 0.0894,0.779202 v 3.040164 q 0,0.140512 -0.0383,0.229928 -0.0255,0.08942 -0.11497,0.127738 -0.0766,0.02555 -0.2427,0.02555 h -0.49818 v -3.602212 q 0,-0.510952 -0.33212,-0.753654 -0.33212,-0.242702 -1.08577,-0.242702 -0.2427,0 -0.5365,0.03832 -0.28102,0.03832 -0.5365,0.114965 -0.25548,0.06387 -0.42154,0.178833 v 4.266449 z m 6.92339,0.0511 q -0.58759,0 -0.84307,-0.255476 -0.25548,-0.26825 -0.25548,-0.945261 v -4.879592 q 0,-0.153285 0.0255,-0.242702 0.0256,-0.10219 0.10219,-0.140512 0.0894,-0.03832 0.2427,-0.03832 h 0.5365 q 0,0.01277 -0.0128,0.166059 -0.0128,0.153286 -0.0128,0.383214 v 4.611342 q 0,0.485405 0.10219,0.702559 0.11496,0.217155 0.4343,0.217155 0.0894,0 0.24271,-0.02555 0.15328,-0.02555 0.20438,-0.03832 v 0.395988 q -0.0766,0.01277 -0.25548,0.05109 -0.16606,0.03832 -0.51095,0.03832 z m 2.66971,0 q -0.60036,0 -0.80474,-0.319345 -0.20439,-0.319345 -0.20439,-0.932487 v -3.896009 h 0.89417 v 3.844914 q 0,0.523725 0.11496,0.702559 0.11497,0.178833 0.40877,0.178833 0.10219,0 0.25547,-0.02555 0.15329,-0.02555 0.19161,-0.03832 v 0.395988 q -0.0383,0.01277 -0.15329,0.03832 -0.10219,0.01277 -0.28102,0.02555 -0.16606,0.02555 -0.42154,0.02555 z m -0.54927,-5.888722 q -0.21715,0 -0.34489,-0.06387 -0.12774,-0.06387 -0.12774,-0.268249 0,-0.204381 0.11496,-0.26825 0.12774,-0.06387 0.3449,-0.06387 0.2427,0 0.35766,0.06387 0.11497,0.06387 0.10219,0.26825 0,0.20438 -0.11496,0.268249 -0.11496,0.06387 -0.33212,0.06387 z m 2.56751,5.837627 q -0.29379,0 -0.29379,-0.306571 v -4.419735 q 0.37044,-0.166059 0.9708,-0.293797 0.61315,-0.127738 1.40512,-0.127738 0.74088,0 1.20074,0.10219 0.45986,0.10219 0.70256,0.306571 0.2427,0.204381 0.31934,0.5365 0.0894,0.319345 0.0894,0.779202 v 3.040164 q 0,0.140512 -0.0383,0.229928 -0.0256,0.08942 -0.11496,0.127738 -0.0767,0.02555 -0.24271,0.02555 h -0.49818 v -3.602212 q 0,-0.510952 -0.33211,-0.753654 -0.33212,-0.242702 -1.08578,-0.242702 -0.2427,0 -0.5365,0.03832 -0.28102,0.03832 -0.5365,0.114965 -0.25547,0.06387 -0.42153,0.178833 v 4.266449 z m 8.26464,0.07664 q -0.74088,0 -1.25183,-0.102191 -0.49818,-0.10219 -0.80475,-0.383214 -0.2938,-0.281023 -0.43431,-0.779201 -0.12774,-0.510952 -0.12774,-1.315702 0,-0.919713 0.22993,-1.507308 0.22993,-0.587595 0.81752,-0.868619 0.5876,-0.281023 1.64783,-0.281023 0.81752,0 1.30292,0.217154 0.49818,0.217155 0.71534,0.664238 0.22992,0.447083 0.22992,1.162416 v 0.728106 h -3.60221 q 0,-0.153285 0.0767,-0.255476 0.0766,-0.114964 0.28102,-0.114964 h 2.43979 l -0.0128,-0.37044 q -0.0128,-0.791976 -0.34489,-1.149642 -0.31935,-0.357666 -1.1241,-0.357666 -0.67701,0 -1.06022,0.20438 -0.38322,0.204381 -0.5365,0.664238 -0.15329,0.459857 -0.15329,1.251832 0,0.843071 0.16606,1.290154 0.17884,0.434309 0.5876,0.600369 0.40876,0.153285 1.11132,0.153285 0.2427,0 0.54927,-0.01277 0.31935,-0.02555 0.63869,-0.0511 0.31935,-0.02555 0.56205,-0.06387 0.25547,-0.0511 0.35766,-0.10219 v 0.153286 q 0,0.127738 -0.0766,0.242702 -0.0639,0.114964 -0.28102,0.191607 -0.28103,0.114964 -0.76643,0.153285 -0.47263,0.03832 -1.13687,0.03832 z m 6.60403,-2.656951 q 0,-1.034677 0.26825,-1.583951 0.28102,-0.549273 0.80475,-0.753654 0.52372,-0.204381 1.27738,-0.204381 0.21715,0 0.51095,0.01277 0.30657,0.01277 0.61314,0.0511 0.30657,0.02555 0.5365,0.06387 0.22993,0.03832 0.31935,0.07664 l -0.26825,0.127738 v -1.660594 h 0.88139 l -0.0128,3.883235 q 0,0.868619 -0.11497,1.392344 -0.11496,0.510952 -0.39599,0.766428 -0.26825,0.255476 -0.76642,0.344893 -0.48541,0.08942 -1.22629,0.08942 -0.68978,0 -1.16241,-0.08942 -0.47263,-0.08942 -0.75366,-0.357666 -0.26825,-0.26825 -0.39599,-0.779202 -0.11496,-0.510952 -0.11496,-1.379571 z m 2.35038,2.094904 q 0.57482,0 0.90694,-0.06387 0.34489,-0.07664 0.52372,-0.281024 0.17884,-0.217155 0.22993,-0.600369 0.0511,-0.383214 0.0511,-1.00913 v -2.069355 q -0.14051,-0.01277 -0.40876,-0.02555 -0.25548,-0.01277 -0.5365,-0.02555 -0.28103,-0.01277 -0.49818,-0.01277 -0.61314,0 -0.99636,0.166059 -0.38321,0.153286 -0.56205,0.600369 -0.16605,0.434309 -0.16605,1.264606 0,0.881392 0.12773,1.328475 0.14052,0.434309 0.45986,0.587595 0.31935,0.140512 0.86862,0.140512 z m 6.15696,0.574821 q -0.75365,0 -1.22628,-0.07664 -0.47263,-0.07664 -0.72811,-0.255476 -0.2427,-0.191607 -0.34489,-0.498178 -0.0894,-0.306572 -0.0894,-0.753655 0,-0.651463 0.15329,-0.996356 0.15328,-0.344893 0.5365,-0.472631 0.38321,-0.127738 1.0219,-0.127738 0.31935,0 0.68979,0.02555 0.38321,0.01277 0.7281,0.03832 0.35767,0.01277 0.61315,0.03832 0.26825,0.02555 0.35766,0.06387 0,-0.587595 -0.10219,-0.932488 -0.10219,-0.344892 -0.31934,-0.510952 -0.20438,-0.166059 -0.52373,-0.217154 -0.30657,-0.05109 -0.71533,-0.05109 -0.42154,0 -0.85585,0.03832 -0.42153,0.02555 -0.7792,0.10219 -0.35766,0.06387 -0.54927,0.178834 v -0.191607 q 0,-0.26825 0.15328,-0.370441 0.16606,-0.114964 0.37044,-0.153285 0.24271,-0.06387 0.70256,-0.102191 0.47263,-0.03832 0.98359,-0.02555 0.65146,0 1.11132,0.06387 0.47263,0.06387 0.7792,0.281023 0.30657,0.204381 0.45985,0.625917 0.15329,0.421535 0.15329,1.149642 v 2.631402 q -0.0766,0.255476 -0.67701,0.383214 -0.60037,0.114965 -1.9033,0.114965 z m 0,-0.43431 q 0.5876,0 0.93249,-0.03832 0.35767,-0.03832 0.5365,-0.10219 0.19161,-0.06387 0.2427,-0.16606 v -1.903296 q -0.11496,-0.03832 -0.43431,-0.07664 -0.30657,-0.03832 -0.65146,-0.06387 -0.34489,-0.03832 -0.5876,-0.03832 -0.54927,0 -0.89416,0.06387 -0.33212,0.06387 -0.48541,0.319345 -0.14051,0.255476 -0.14051,0.791975 0,0.421536 0.10219,0.689786 0.10219,0.268249 0.40876,0.395987 0.31935,0.127738 0.97081,0.127738 z m 5.27558,0.383214 q -0.43431,0 -0.67701,-0.10219 -0.2427,-0.114964 -0.35766,-0.383214 -0.11497,-0.26825 -0.11497,-0.728107 v -3.423378 h -0.4854 v -0.498178 h 0.4854 v -0.919714 q 0,-0.191607 0.0256,-0.281023 0.0383,-0.102191 0.11496,-0.127738 0.0767,-0.02555 0.21716,-0.02555 h 0.54927 q 0,0.02555 -0.0128,0.114964 0,0.07664 0,0.229929 v 1.00913 h 1.18796 v 0.498178 h -1.18796 v 3.321188 q 0,0.498178 0.10219,0.702559 0.10219,0.204381 0.45985,0.204381 0.14052,0 0.2938,-0.02555 0.15329,-0.02555 0.21716,-0.0511 v 0.395988 q -0.0767,0.01277 -0.2938,0.0511 -0.21716,0.03832 -0.52373,0.03832 z m 4.13871,0.0511 q -0.75366,0 -1.22629,-0.07664 -0.47263,-0.07664 -0.7281,-0.255476 -0.24271,-0.191607 -0.3449,-0.498178 -0.0894,-0.306572 -0.0894,-0.753655 0,-0.651463 0.15328,-0.996356 0.15329,-0.344893 0.5365,-0.472631 0.38322,-0.127738 1.02191,-0.127738 0.31934,0 0.68978,0.02555 0.38321,0.01277 0.72811,0.03832 0.35766,0.01277 0.61314,0.03832 0.26825,0.02555 0.35767,0.06387 0,-0.587595 -0.10219,-0.932488 -0.1022,-0.344892 -0.31935,-0.510952 -0.20438,-0.166059 -0.52373,-0.217154 -0.30657,-0.05109 -0.71533,-0.05109 -0.42153,0 -0.85584,0.03832 -0.42154,0.02555 -0.7792,0.10219 -0.35767,0.06387 -0.54928,0.178834 v -0.191607 q 0,-0.26825 0.15329,-0.370441 0.16606,-0.114964 0.37044,-0.153285 0.2427,-0.06387 0.70256,-0.102191 0.47263,-0.03832 0.98358,-0.02555 0.65146,0 1.11132,0.06387 0.47263,0.06387 0.7792,0.281023 0.30657,0.204381 0.45986,0.625917 0.15328,0.421535 0.15328,1.149642 v 2.631402 q -0.0766,0.255476 -0.67701,0.383214 -0.60037,0.114965 -1.90329,0.114965 z m 0,-0.43431 q 0.58759,0 0.93248,-0.03832 0.35767,-0.03832 0.5365,-0.10219 0.19161,-0.06387 0.24271,-0.16606 v -1.903296 q -0.11497,-0.03832 -0.43431,-0.07664 -0.30657,-0.03832 -0.65147,-0.06387 -0.34489,-0.03832 -0.58759,-0.03832 -0.54928,0 -0.89417,0.06387 -0.33212,0.06387 -0.4854,0.319345 -0.14051,0.255476 -0.14051,0.791975 0,0.421536 0.10219,0.689786 0.10219,0.268249 0.40876,0.395987 0.31934,0.127738 0.97081,0.127738 z m 10.29567,0.43431 q -0.76642,0 -1.35402,-0.114965 -0.58759,-0.114964 -1.00913,-0.421535 -0.40876,-0.319345 -0.62592,-0.919714 -0.21715,-0.600368 -0.21715,-1.583951 0,-0.996356 0.22993,-1.596725 0.2427,-0.613142 0.67701,-0.919713 0.43431,-0.306572 1.03468,-0.408762 0.61314,-0.10219 1.36679,-0.10219 0.75366,0 1.34125,0.114964 0.5876,0.10219 0.99636,0.421535 0.42153,0.306571 0.63869,0.90694 0.21715,0.600369 0.21715,1.583951 0,1.00913 -0.2427,1.609499 -0.22993,0.600369 -0.66424,0.919714 -0.42153,0.306571 -1.03467,0.408761 -0.60037,0.102191 -1.35403,0.102191 z m 0.0383,-0.549274 q 0.5365,0 0.95804,-0.08942 0.42154,-0.102191 0.70256,-0.357667 0.2938,-0.255476 0.43431,-0.74088 0.15328,-0.498178 0.15328,-1.302928 0,-0.791975 -0.15328,-1.27738 -0.14051,-0.498178 -0.43431,-0.753654 -0.28102,-0.26825 -0.70256,-0.357666 -0.42154,-0.08942 -0.95804,-0.08942 -0.54927,0 -0.9708,0.08942 -0.40877,0.08942 -0.68979,0.357666 -0.28102,0.255476 -0.43431,0.753654 -0.14051,0.485405 -0.14051,1.27738 0,0.80475 0.14051,1.302928 0.15329,0.485404 0.43431,0.74088 0.28102,0.255476 0.68979,0.357667 0.42153,0.08942 0.9708,0.08942 z m 4.49638,-0.434309 q 0.26825,0.178833 0.68979,0.26825 0.43431,0.07664 0.89416,0.10219 0.47263,0.01277 0.81753,0.01277 0.12773,0 0.29379,0 0.16606,0 0.2938,-0.01277 0.51095,-0.01277 0.89417,-0.114964 0.38321,-0.114964 0.60036,-0.37044 0.21716,-0.26825 0.21716,-0.753654 0,-0.587595 -0.30657,-0.766428 -0.30657,-0.178834 -0.89417,-0.178834 -0.19161,0 -0.40876,0 -0.21715,0 -0.45986,0 -0.2427,0 -0.56204,0 -0.35767,0 -0.72811,-0.02555 -0.37044,-0.03832 -0.67701,-0.16606 -0.30657,-0.140511 -0.48541,-0.421535 -0.17883,-0.293797 -0.17883,-0.830297 0,-0.625916 0.21716,-0.983583 0.22992,-0.357666 0.63869,-0.523725 0.40876,-0.16606 0.93248,-0.217155 0.5365,-0.05109 1.13687,-0.05109 0.35767,0 0.80475,0.01277 0.45986,0.01277 0.85584,0.06387 0.40877,0.0511 0.63869,0.178833 0.20439,0.02555 0.30658,0.127738 0.11496,0.10219 0.11496,0.255476 0,0.0511 0,0.127738 0,0.06387 0,0.127738 0,0.06387 0,0.08942 -0.11496,-0.127738 -0.38321,-0.20438 -0.26825,-0.07664 -0.61315,-0.114965 -0.33211,-0.0511 -0.65146,-0.06387 -0.31934,-0.02555 -0.52373,-0.02555 h -0.75365 q -0.45986,0 -0.85584,0.07664 -0.39599,0.07664 -0.63869,0.319345 -0.22993,0.229928 -0.22993,0.74088 0,0.395988 0.15328,0.587595 0.16606,0.191607 0.45986,0.255476 0.2938,0.05109 0.70256,0.05109 0.49818,0 0.88139,0 0.38321,0 0.62592,0 0.56204,0 0.99635,0.10219 0.43431,0.08942 0.67701,0.421536 0.24271,0.319345 0.24271,1.00913 0,0.677011 -0.30657,1.072999 -0.2938,0.395988 -0.81753,0.562047 -0.51095,0.16606 -1.17519,0.204381 -0.31934,0.01277 -0.61314,0.01277 -0.2938,0.01277 -0.61314,0 -0.2938,0 -0.67701,-0.02555 -0.38322,-0.02555 -0.74088,-0.07664 -0.3449,-0.06387 -0.57482,-0.178834 -0.21716,-0.127738 -0.21716,-0.332118 z"
       id="text1"
       style="font-size:12.7738px;line-height:1.25;font-family:Genos;-inkscape-font-specification:Genos;fill:#ffffff;stroke-width:2.87773"
       aria-label="Your personal online data OS" />
  </g>
</svg>
